<?xml version="1.0" encoding="iso-8859-1"?>
<!-- Generator: Adobe Illustrator 16.0.0, SVG Export Plug-In . SVG Version: 6.00 Build 0)  -->
<!DOCTYPE svg PUBLIC "-//W3C//DTD SVG 1.1//EN" "http://www.w3.org/Graphics/SVG/1.1/DTD/svg11.dtd">
<svg version="1.1" id="&#x5716;&#x5C64;_1" xmlns="http://www.w3.org/2000/svg" xmlns:xlink="http://www.w3.org/1999/xlink" x="0px"
	 y="0px" width="101.518px" height="23.938px" viewBox="0 0 101.518 23.938" style="enable-background:new 0 0 101.518 23.938;"
	 xml:space="preserve">
<g>
	
		<linearGradient id="SVGID_1_" gradientUnits="userSpaceOnUse" x1="193.5969" y1="-152.552" x2="217.5344" y2="-152.552" gradientTransform="matrix(1 0 0 -1 -193.5938 -148.2788)">
		<stop  offset="0" style="stop-color:#3F4293"/>
		<stop  offset="1" style="stop-color:#ED95C7"/>
	</linearGradient>
	<path style="fill:url(#SVGID_1_);" d="M7.928,5.795h6.457c3.271,0,3.769,1.432,3.792,2.725h5.764
		c-0.025-3.085-1.257-5.416-3.673-6.936c-1.738-1.034-3.721-1.558-5.883-1.558H0.938H0.002v5.769H5.77H7.928z"/>
	
		<linearGradient id="SVGID_2_" gradientUnits="userSpaceOnUse" x1="431.2922" y1="4.0798" x2="455.2297" y2="4.0798" gradientTransform="matrix(0 1 -1 0 8.3276 -431.292)">
		<stop  offset="0" style="stop-color:#F7E30A"/>
		<stop  offset="1" style="stop-color:#E13B25"/>
	</linearGradient>
	<path style="fill:url(#SVGID_2_);" d="M5.768,7.926v6.458c0,3.271,1.435,3.768,2.728,3.791v5.763
		c-3.086-0.024-5.418-1.255-6.938-3.672C0.521,18.527,0,16.545,0,14.384V0.938V0h5.768v5.768V7.926z"/>
	
		<linearGradient id="SVGID_3_" gradientUnits="userSpaceOnUse" x1="257.0588" y1="-183.0818" x2="257.0588" y2="-198.5002" gradientTransform="matrix(1 0 0 -1 -236 -174.562)">
		<stop  offset="0" style="stop-color:#0368B0"/>
		<stop  offset="1" style="stop-color:#3FBFEE"/>
	</linearGradient>
	<rect x="18.177" y="8.52" style="fill:url(#SVGID_3_);" width="5.764" height="15.418"/>
	
		<linearGradient id="SVGID_4_" gradientUnits="userSpaceOnUse" x1="244.4944" y1="-195.6184" x2="259.9397" y2="-195.6184" gradientTransform="matrix(1 0 0 -1 -236 -174.562)">
		<stop  offset="0" style="stop-color:#BCD20E"/>
		<stop  offset="1" style="stop-color:#12753F"/>
	</linearGradient>
	<rect x="8.494" y="18.175" style="fill:url(#SVGID_4_);" width="15.445" height="5.763"/>
</g>
<path style="fill:#FFFFFF;" d="M31.152,21.009c-1.004,0-1.827-1.018-1.827-2.26V5.175c0-1.243,1.02-2.26,2.26-2.26h3.169
	c1.245,0,3.278,0.048,4.521,0.109c0,0,1.079,0.054,1.956,0.377c0.876,0.324,1.576,0.903,2.105,1.735
	c0.524,0.832,0.788,1.781,0.788,2.85c0,1.359-0.399,2.481-1.196,3.364c-0.799,0.887-1.991,1.443-3.578,1.673
	c0.79,0.461,1.441,0.968,1.955,1.52c0.512,0.552,1.206,1.532,2.08,2.938l1.011,1.613c0.658,1.055,0.214,1.916-0.986,1.916
	c-1.203,0-2.75-0.843-3.443-1.876l-0.124-0.183c-0.693-1.033-1.836-2.716-2.541-3.739c0,0-0.298-0.434-0.646-0.799
	c-0.344-0.364-0.711-0.616-1.099-0.752c-0.384-0.138-0.998-0.203-1.836-0.203l0,0c-0.411,0-0.742,1.015-0.742,2.26v3.033
	C32.979,19.992,32.156,21.009,31.152,21.009z M32.979,8.309c0,1.24,0.607,2.26,1.352,2.26s2.369-0.025,3.61-0.06
	c0,0,0.587-0.015,1.024-0.166c0.437-0.146,0.777-0.401,1.023-0.764c0.248-0.362,0.371-0.814,0.371-1.357
	c0-0.609-0.164-1.101-0.487-1.474c-0.325-0.375-0.784-0.611-1.375-0.711c-0.296-0.042-1.188-0.061-2.667-0.061h-0.59
	c-1.245,0-2.261,1.016-2.261,2.258L32.979,8.309L32.979,8.309z"/>
<path style="fill:#FFFFFF;" d="M66.834,15.123l1.308-0.126c1.235-0.121,2.537,0.711,2.896,1.85c0,0,0,0,0.653,0.562
	c0.654,0.558,1.536,0.838,2.647,0.838c1.174,0,2.063-0.25,2.657-0.746c0.599-0.499,0.896-1.082,0.896-1.748
	c0-0.428-0.124-0.792-0.375-1.092c-0.253-0.301-0.689-0.563-1.315-0.784c-0.429-0.148-1.404-0.411-2.925-0.79
	c-1.958-0.486-3.333-1.082-4.123-1.788c-1.11-0.998-1.667-2.211-1.667-3.642c0-0.924,0.26-1.784,0.786-2.588
	c0.521-0.804,1.272-1.412,2.258-1.832c0.981-0.419,2.17-0.631,3.561-0.631c2.27,0,3.981,0.499,5.13,1.494
	c1.147,0.996,1.748,2.324,1.806,3.989l-1.396,0.06c-1.239,0.056-2.479-0.621-2.75-1.499c0,0,0,0-0.513-0.405
	c-0.517-0.409-1.286-0.614-2.315-0.614c-1.061,0-1.891,0.221-2.491,0.655c-0.389,0.28-0.581,0.652-0.581,1.124
	c0,0.428,0.181,0.795,0.543,1.099c0.461,0.384,1.58,0.791,3.356,1.21s3.09,0.852,3.942,1.302c0.852,0.448,1.519,1.06,1.999,1.838
	c0.48,0.777,0.725,1.737,0.725,2.88c0,1.038-0.289,2.01-0.865,2.914c-0.575,0.905-1.391,1.578-2.442,2.019
	c-1.053,0.44-2.366,0.662-3.938,0.662c-2.287,0-4.044-0.53-5.269-1.587C67.805,18.687,67.073,17.146,66.834,15.123z"/>
<path style="fill:#FFFFFF;" d="M58.28,14.356c-1.151,0-2.093-0.684-2.093-1.522c0-0.838,1.018-1.525,2.261-1.525h3.354
	c1.24,0,2.261,1.019,2.261,2.258v2.69c0,1.243-0.817,2.867-1.813,3.606c0,0-0.063,0.047-1.516,0.607
	c-1.452,0.565-2.922,0.848-4.41,0.848c-1.894,0-3.544-0.396-4.949-1.191c-1.408-0.792-2.467-1.93-3.173-3.406
	s-1.062-3.083-1.062-4.818c0-1.885,0.395-3.561,1.185-5.023c0.791-1.465,1.945-2.589,3.469-3.37
	c1.158-0.604,2.604-0.903,4.333-0.903c2.247,0,3.999,0.473,5.262,1.415c1.265,0.942,2.077,2.245,2.438,3.904L62.421,8.19
	c-1.224,0.229-2.553-0.3-2.958-1.174c0,0,0,0-0.701-0.515c-0.704-0.515-1.583-0.771-2.636-0.771c-1.599,0-2.865,0.503-3.811,1.517
	c-0.939,1.013-1.413,2.514-1.413,4.505c0,2.147,0.479,3.759,1.434,4.834c0.956,1.073,2.205,1.61,3.753,1.61
	c0.766,0,1.532-0.149,2.302-0.449c0.768-0.304,1.431-0.667,1.982-1.096v-0.035C60.373,15.374,59.43,14.356,58.28,14.356z"/>
<path style="fill:#FFFFFF;" d="M85.738,21.009c-0.934,0-1.696-1.018-1.696-2.26V5.175c0-1.243,1.018-2.26,2.26-2.26h0.949
	c1.24,0,2.521,0.983,2.839,2.185l2.123,7.976c0.317,1.2,0.839,1.198,1.154-0.002L95.463,5.1c0.315-1.201,1.592-2.185,2.837-2.185
	h0.958c1.244,0,2.26,1.018,2.26,2.26v13.574c0,1.243-0.764,2.26-1.694,2.26c-0.937,0-1.699-1.018-1.699-2.26V9.026
	c0-1.242-0.247-1.273-0.553-0.067l-2.484,9.858c-0.305,1.205-1.347,2.192-2.313,2.192c-0.966,0-2.009-0.987-2.309-2.192
	l-2.478-9.858c-0.305-1.206-0.552-1.174-0.552,0.067v9.724C87.436,19.992,86.672,21.009,85.738,21.009z"/>
</svg>
