<?xml version="1.0" encoding="utf-8"?>
<!-- Generator: Adobe Illustrator 16.0.0, SVG Export Plug-In . SVG Version: 6.00 Build 0)  -->
<!DOCTYPE svg PUBLIC "-//W3C//DTD SVG 1.1//EN" "http://www.w3.org/Graphics/SVG/1.1/DTD/svg11.dtd">
<svg version="1.1" id="圖層_1" xmlns="http://www.w3.org/2000/svg" xmlns:xlink="http://www.w3.org/1999/xlink" x="0px" y="0px"
	 width="101.518px" height="23.938px" viewBox="0 0 101.518 23.938" enable-background="new 0 0 101.518 23.938"
	 xml:space="preserve">
<g>
	
		<linearGradient id="SVGID_1_" gradientUnits="userSpaceOnUse" x1="-42.4038" y1="-22.0098" x2="-18.4653" y2="-22.0098" gradientTransform="matrix(1 0 0 1 42.4058 26.2832)">
		<stop  offset="0" style="stop-color:#3F4293"/>
		<stop  offset="1" style="stop-color:#ED95C7"/>
	</linearGradient>
	<path fill="url(#SVGID_1_)" d="M7.928,5.795h6.457c3.271,0,3.769,1.432,3.792,2.725h5.764c-0.026-3.085-1.257-5.416-3.673-6.936
		c-1.738-1.034-3.721-1.557-5.883-1.557H0.938H0.002v5.768H5.77H7.928z"/>
	
		<linearGradient id="SVGID_2_" gradientUnits="userSpaceOnUse" x1="246.0029" y1="-229.3525" x2="269.9404" y2="-229.3525" gradientTransform="matrix(0 1 1 0 233.5996 -246.002)">
		<stop  offset="0" style="stop-color:#F7E30A"/>
		<stop  offset="1" style="stop-color:#E13B25"/>
	</linearGradient>
	<path fill="url(#SVGID_2_)" d="M5.768,7.926v6.458c0,3.271,1.434,3.768,2.727,3.791v5.763c-3.086-0.025-5.418-1.255-6.938-3.672
		C0.521,18.527,0,16.545,0,14.384V0.938V0h5.768v5.768V7.926z"/>
	<linearGradient id="SVGID_3_" gradientUnits="userSpaceOnUse" x1="21.0586" y1="8.5195" x2="21.0586" y2="23.9375">
		<stop  offset="0" style="stop-color:#0368B0"/>
		<stop  offset="1" style="stop-color:#3FBFEE"/>
	</linearGradient>
	<rect x="18.177" y="8.52" fill="url(#SVGID_3_)" width="5.764" height="15.418"/>
	<linearGradient id="SVGID_4_" gradientUnits="userSpaceOnUse" x1="8.4941" y1="21.0562" x2="23.9404" y2="21.0562">
		<stop  offset="0" style="stop-color:#BCD20E"/>
		<stop  offset="1" style="stop-color:#12753F"/>
	</linearGradient>
	<rect x="8.494" y="18.175" fill="url(#SVGID_4_)" width="15.446" height="5.763"/>
</g>
<g>
	<path fill="#FFFFFF" d="M31.152,21.009c-1.004,0-1.828-1.018-1.828-2.26V5.175c0-1.243,1.02-2.26,2.26-2.26h3.169
		c1.245,0,3.278,0.048,4.521,0.11c0,0,1.079,0.053,1.956,0.377c0.876,0.324,1.576,0.903,2.105,1.735
		c0.525,0.832,0.788,1.781,0.788,2.85c0,1.359-0.399,2.481-1.196,3.364c-0.799,0.887-1.991,1.443-3.578,1.673
		c0.79,0.461,1.441,0.967,1.955,1.519c0.512,0.552,1.206,1.532,2.08,2.938l1.011,1.613c0.658,1.055,0.214,1.916-0.987,1.916
		c-1.203,0-2.75-0.843-3.443-1.876l-0.124-0.183c-0.693-1.033-1.836-2.715-2.541-3.739c0,0-0.298-0.433-0.645-0.799
		c-0.344-0.364-0.711-0.616-1.099-0.752c-0.384-0.137-0.998-0.203-1.836-0.203l0,0c-0.411,0-0.742,1.015-0.742,2.26v3.033
		C32.979,19.992,32.156,21.009,31.152,21.009z M32.979,8.309c0,1.24,0.607,2.26,1.351,2.26c0.744,0,2.369-0.026,3.611-0.06
		c0,0,0.587-0.015,1.024-0.166c0.437-0.146,0.777-0.401,1.024-0.764c0.248-0.362,0.371-0.814,0.371-1.357
		c0-0.609-0.164-1.101-0.488-1.474c-0.325-0.375-0.784-0.611-1.375-0.711c-0.296-0.042-1.188-0.06-2.667-0.06H35.24
		c-1.245,0-2.26,1.015-2.26,2.258V8.309z"/>
	<path fill="#FFFFFF" d="M46.642,15.123l1.307-0.126c1.236-0.121,2.538,0.711,2.896,1.85c0,0,0,0,0.653,0.561
		c0.655,0.558,1.536,0.838,2.648,0.838c1.174,0,2.062-0.25,2.657-0.746c0.599-0.499,0.896-1.082,0.896-1.748
		c0-0.428-0.124-0.792-0.375-1.092c-0.252-0.3-0.689-0.563-1.315-0.784c-0.429-0.148-1.404-0.411-2.925-0.79
		c-1.958-0.486-3.333-1.082-4.123-1.788c-1.11-0.998-1.667-2.211-1.667-3.642c0-0.923,0.26-1.784,0.786-2.587
		c0.521-0.804,1.273-1.413,2.258-1.832c0.982-0.419,2.17-0.631,3.561-0.631c2.269,0,3.981,0.499,5.13,1.494
		c1.147,0.996,1.748,2.324,1.805,3.989l-1.395,0.06c-1.24,0.055-2.479-0.621-2.75-1.499c0,0,0,0-0.513-0.406
		c-0.517-0.409-1.286-0.614-2.315-0.614c-1.061,0-1.891,0.221-2.492,0.655c-0.388,0.281-0.581,0.653-0.581,1.124
		c0,0.428,0.181,0.795,0.543,1.099c0.461,0.384,1.58,0.791,3.357,1.21c1.776,0.419,3.09,0.852,3.942,1.302
		c0.852,0.448,1.519,1.059,1.999,1.838c0.481,0.777,0.725,1.737,0.725,2.88c0,1.038-0.289,2.009-0.865,2.914
		s-1.391,1.578-2.443,2.018c-1.053,0.441-2.366,0.662-3.938,0.662c-2.287,0-4.044-0.53-5.269-1.587
		C47.613,18.687,46.88,17.146,46.642,15.123z"/>
	<path fill="#FFFFFF" d="M74.938,14.356c-1.152,0-2.093-0.684-2.093-1.523c0-0.838,1.018-1.525,2.261-1.525h3.354
		c1.24,0,2.261,1.018,2.261,2.258v2.69c0,1.243-0.817,2.867-1.814,3.607c0,0-0.063,0.046-1.515,0.607
		c-1.452,0.565-2.922,0.848-4.41,0.848c-1.894,0-3.544-0.397-4.95-1.192c-1.408-0.792-2.466-1.929-3.172-3.406
		s-1.062-3.083-1.062-4.818c0-1.885,0.395-3.561,1.185-5.024c0.791-1.465,1.945-2.589,3.468-3.37
		c1.159-0.603,2.604-0.903,4.333-0.903c2.247,0,3.999,0.472,5.262,1.415c1.265,0.942,2.077,2.245,2.439,3.904L79.079,8.19
		c-1.223,0.229-2.552-0.3-2.958-1.174c0,0,0,0-0.701-0.515c-0.704-0.514-1.583-0.77-2.636-0.77c-1.598,0-2.865,0.503-3.81,1.516
		c-0.94,1.013-1.413,2.514-1.413,4.505c0,2.148,0.478,3.759,1.433,4.834c0.956,1.073,2.205,1.611,3.753,1.611
		c0.766,0,1.533-0.15,2.302-0.45c0.768-0.303,1.431-0.667,1.982-1.095v-0.036C77.031,15.374,76.088,14.356,74.938,14.356z"/>
	<path fill="#FFFFFF" d="M85.738,21.009c-0.934,0-1.697-1.018-1.697-2.26V5.175c0-1.243,1.018-2.26,2.26-2.26h0.949
		c1.24,0,2.521,0.984,2.839,2.185l2.123,7.975c0.318,1.201,0.839,1.199,1.154-0.002L95.463,5.1c0.316-1.201,1.592-2.185,2.837-2.185
		h0.958c1.244,0,2.26,1.018,2.26,2.26v13.574c0,1.243-0.764,2.26-1.695,2.26c-0.936,0-1.699-1.018-1.699-2.26V9.026
		c0-1.243-0.247-1.274-0.552-0.068l-2.485,9.859c-0.305,1.205-1.347,2.192-2.313,2.192s-2.009-0.987-2.309-2.192l-2.477-9.859
		c-0.305-1.206-0.552-1.174-0.552,0.068v9.723C87.436,19.992,86.672,21.009,85.738,21.009z"/>
</g>
</svg>
