<?xml version="1.0" encoding="utf-8"?>
<!-- Generator: Adobe Illustrator 16.0.0, SVG Export Plug-In . SVG Version: 6.00 Build 0)  -->
<!DOCTYPE svg PUBLIC "-//W3C//DTD SVG 1.1//EN" "http://www.w3.org/Graphics/SVG/1.1/DTD/svg11.dtd">
<svg version="1.1" id="圖層_1" xmlns="http://www.w3.org/2000/svg" xmlns:xlink="http://www.w3.org/1999/xlink" x="0px" y="0px"
	 width="378px" height="198px" viewBox="112.14 334.445 378 198" enable-background="new 112.14 334.445 378 198"
	 xml:space="preserve">
<path fill="#040001" d="M482.25,464.32c-0.205-0.246-0.409-0.492-0.614-0.738c2.009-3.525,1.599-7.707-1.107-10.659
	c-0.082-0.123-0.205-0.205-0.287-0.328c-1.763-1.763-4.182-2.706-6.765-2.706c-0.082,0-0.205,0-0.327,0
	c-1.066,0.041-2.173,0.205-3.321,0.492c-0.901,0.246-1.845,0.533-2.747,0.902c-0.655,0.287-1.188,0.492-1.64,0.737
	c-0.041,0-0.041,0-0.082,0.041c-1.886,0.902-3.648,1.969-5.206,3.116c-1.354,1.025-2.665,2.091-3.937,3.198
	c-0.041,0.04-0.082,0.081-0.123,0.122c-0.86,0.82-1.722,1.641-2.541,2.46h-4.797c-2.993,0-5.576,1.312-7.216,3.403
	c-0.901-0.287-1.845-0.451-2.829-0.451c-0.778,0-1.558,0.082-2.336,0.287c-0.164,0.041-0.328,0.082-0.492,0.164
	c-1.066,0.328-2.05,0.819-2.952,1.353c-0.942,0.574-1.804,1.23-2.542,1.968c-0.532,0.492-0.983,1.025-1.435,1.6l-0.328,0.328
	c-1.681-1.641-3.812-2.747-6.437-3.28c-2.132-0.41-4.428-0.41-6.724,0.041c-1.763,0.328-3.525,0.861-5.247,1.517
	c-0.861,0.328-1.723,0.697-2.583,1.107c0.369-0.328,0.737-0.656,1.147-1.025c1.066-0.983,2.132-1.968,3.198-2.951
	c1.271-1.189,2.46-2.46,3.525-3.772c0.41-0.491,0.82-1.024,1.189-1.599c0.86-1.229,1.435-2.542,1.722-3.895
	c0.656-2.87-0.041-5.74-1.927-7.954c-1.23-1.476-3.567-3.197-7.462-3.197c-1.476,0-2.952,0.246-4.469,0.738
	c-0.574,0.164-1.106,0.368-1.64,0.614c-0.164-0.86-0.41-1.763-0.779-2.582c0-0.041-0.041-0.041-0.041-0.082
	c-0.778-1.805-1.886-3.362-3.361-4.715c-1.189-1.107-2.542-2.009-4.1-2.788c-1.271-0.615-2.706-1.147-4.223-1.558
	c-1.271-0.369-2.665-0.656-4.1-0.861h-0.041c-3.772-0.533-7.79-0.738-12.013-0.574c-4.182,0.164-8.445,0.656-12.709,1.518
	c-0.041,0-0.041,0-0.082,0c-4.674,0.983-9.266,2.419-13.611,4.223c-4.264,1.763-8.363,3.895-12.176,6.231
	c-3.444,2.132-6.683,4.51-9.635,7.011c-2.46,2.091-4.715,4.305-6.724,6.56l0.41-4.797c0.041-0.328,0.041-0.656,0.041-0.984
	l-0.041-1.229c-0.082-3.157-2.009-5.903-4.756-7.175l-0.205-6.929c0-0.082,0-0.164,0-0.246l-0.778-13.692l-0.451-11.356
	c1.229-1.476,1.927-3.321,1.927-5.248v-0.819c0-0.861-0.123-1.723-0.41-2.542l-0.082-0.205c-0.082-0.246-0.164-0.451-0.246-0.697
	c0.574-1.106,0.902-2.378,0.902-3.648l0.041-4.879c0-0.779-0.082-1.517-0.287-2.255l-0.082-0.246
	c-0.533-1.845-1.681-3.444-3.238-4.551l-0.082-10.659l0.082-8.814c0-0.205,0-0.451,0-0.656l-0.041-0.451
	c-0.082-0.943-0.287-1.845-0.656-2.706v-5.33c0-0.287,0-0.574-0.041-0.861v-0.041c-0.451-4.1-3.854-7.215-7.994-7.297h-0.164
	c-0.041,0-0.123,0-0.164,0c-4.428,0-8.076,3.525-8.199,7.994l-0.164,5.289c-0.533,1.066-0.82,2.255-0.82,3.485l-0.082,8.855
	l-0.328,10.987c-0.45,0.287-0.86,0.656-1.271,1.025l-0.246,0.246c-1.476,1.517-2.337,3.526-2.378,5.658l-0.041,4.878
	c0,1.025,0.164,2.091,0.533,3.034l0.082,0.246c0.041,0.123,0.082,0.205,0.123,0.327c-0.533,1.107-0.861,2.296-0.861,3.567v0.819
	c0,1.148,0.205,2.296,0.656,3.362l0.082,0.205c0.328,0.737,0.738,1.435,1.229,2.009l-0.614,10.249l-1.107,13.652
	c0,0.082,0,0.164,0,0.246l-0.41,7.912c-2.009,0.82-3.566,2.378-4.428,4.305c0,0,0,0-0.041,0c-0.983,0.41-1.927,0.902-2.869,1.517
	c-0.615,0.41-1.107,0.738-1.518,1.066c-0.041,0-0.041,0.041-0.082,0.041c-1.722,1.312-3.279,2.788-4.673,4.428
	c-1.189,1.394-2.337,2.829-3.403,4.346c-0.041,0.041-0.041,0.082-0.082,0.123c-0.656,0.943-1.271,1.927-1.886,2.87h-2.706
	c-4.346,0-7.912,2.951-8.732,7.051c-1.64,0.205-3.279,0.615-4.878,1.312c-1.518,0.655-3.034,1.476-4.51,2.46
	c-0.041-0.082-0.123-0.123-0.164-0.205c-2.132-2.378-5.207-3.69-8.609-3.69c-2.255,0-4.51,0.492-6.765,1.395
	c-0.697,0.287-1.354,0.614-2.009,0.983c-1.641-1.435-3.731-2.255-6.027-2.255c-1.147,0-2.255,0.205-3.402,0.574
	c-1.271-0.615-2.665-0.942-4.059-0.942c-0.246,0-0.492,0-0.779,0.041c-1.517,0.122-2.952,0.614-4.223,1.435
	c-1.476-0.984-3.197-1.517-5.002-1.517c-0.246,0-0.491,0-0.778,0.041c-0.984,0.081-1.968,0.327-2.911,0.696
	c-0.205-2.337-0.369-4.715-0.492-7.011c-0.123-2.173-0.164-4.305,0-6.396c0.123-1.927,0.41-3.771,0.902-5.534
	c0.328-1.312,0.901-2.46,1.64-3.525c0.697-0.984,1.681-1.846,2.952-2.624c1.271-0.779,3.033-1.395,5.247-1.845
	c-1.024,2.5-0.778,5.37,0.738,7.666c1.845,2.747,5.125,4.141,8.363,3.525c3.895-0.737,7.216-2.132,10.004-4.141
	c4.346-3.156,6.313-7.871,5.37-12.873c-0.615-3.156-2.829-8.814-11.11-11.274c-2.378-0.696-5.001-1.065-7.789-1.065
	c-2.378,0-4.961,0.246-7.667,0.779c-6.108,1.147-11.479,3.197-15.988,6.026c-4.674,2.951-8.445,6.683-11.192,11.069
	c-2.706,4.305-4.469,9.265-5.289,14.718c-0.778,5.207-0.655,10.864,0.369,16.85c0.369,2.378,0.369,5.002,0,7.79
	c-0.328,2.5-1.188,4.878-2.583,7.174c-1.353,2.255-3.443,4.346-6.19,6.231c-2.788,1.887-6.56,3.321-11.315,4.224
	c-2.869,0.532-5.493,0.778-7.871,0.696c-1.394-0.041-2.665-0.164-3.771-0.369c0.45-0.409,0.86-0.778,1.147-1.147
	c2.337-2.665,3.28-5.985,2.665-9.389c-0.738-3.812-3.321-6.806-7.134-8.24c-1.517-0.574-3.197-0.861-5.002-0.861
	c-1.271,0-2.582,0.123-4.059,0.41c-4.346,0.82-7.871,2.993-10.249,6.313c-2.419,3.444-3.32,7.462-2.501,11.685
	c0.738,3.936,2.501,7.421,5.166,10.331c2.46,2.706,5.657,4.797,9.429,6.313c3.403,1.354,7.257,2.173,11.521,2.419
	c0.943,0.082,1.968,0.082,2.952,0.082l0,0c3.197,0,6.601-0.328,10.085-0.983c5.371-1.025,10.536-2.542,15.456-4.51
	c1.517-0.615,2.952-1.271,4.346-2.009c0.656,1.599,1.722,2.992,3.116,4.059c1.681,1.271,3.689,1.968,5.862,1.968
	c0.492,0,0.984-0.041,1.517-0.123c1.641-0.205,3.239-0.779,4.797-1.722c0.246-0.164,0.533-0.328,0.779-0.492
	c1.681,1.188,3.689,1.804,5.821,1.804c0.123,0,0.246,0,0.41,0c1.886-0.082,3.73-0.656,5.575-1.722c1.6-0.943,3.116-2.091,4.51-3.484
	c0.164,0.245,0.369,0.45,0.533,0.696c2.132,2.583,5.207,4.059,8.691,4.182c1.763,0.082,3.607-0.123,5.453-0.533
	c1.804-0.409,3.607-1.065,5.37-1.968c0.451-0.246,0.902-0.45,1.353-0.696c2.05,2.009,4.797,3.115,7.831,3.238
	c1.763,0.082,3.607-0.123,5.452-0.533c1.477-0.327,2.993-0.86,4.469-1.517c1.354,1.189,3.034,1.968,4.838,2.296
	c0.574,0.082,1.148,0.164,1.763,0.164l0,0c0.861,0,1.722-0.082,2.583-0.287c0.82-0.205,1.681-0.492,2.542-0.819
	c0.082-0.041,0.164-0.082,0.287-0.123c0.328-0.164,0.655-0.328,1.024-0.492c0.246,4.305,3.813,7.707,8.159,7.707h12.258
	c4.51,0,8.199-3.689,8.199-8.199v-0.697c1.435-0.655,3.116-1.188,4.92-1.188c2.091,0,4.059,0.697,5.616,1.517v0.369
	c0,2.173,0.861,4.264,2.419,5.821c1.558,1.518,3.607,2.378,5.78,2.378c0,0,0,0,0.041,0l11.603-0.041
	c4.387,0,7.953-3.484,8.158-7.789c0.287-0.082,0.615-0.164,0.943-0.246c0.737-0.205,1.476-0.41,2.214-0.615
	c0.041,0,0.123-0.041,0.164-0.041c2.296-0.737,4.55-1.64,6.724-2.623c2.132-0.984,4.182-2.091,6.108-3.239
	c1.886-1.147,3.73-2.378,5.452-3.689c1.395-1.066,2.706-2.132,3.936-3.198c0.451,0.574,0.984,1.107,1.6,1.558
	c0.041,0,0.041,0.041,0.082,0.041c1.476,1.066,3.279,1.641,5.124,1.641c0.82,0,1.641-0.123,2.46-0.328
	c0.861-0.205,1.64-0.533,2.378-0.943c0.574-0.287,1.107-0.655,1.64-1.024c0.041-0.041,0.082-0.041,0.123-0.082
	c0.164-0.082,0.287-0.205,0.451-0.287c0.369-0.246,0.697-0.492,1.025-0.779c0.86,1.066,1.968,1.968,3.279,2.624
	c1.517,0.779,3.239,1.189,5.084,1.189c0.328,0,0.655,0,0.942-0.041c2.46-0.164,4.879-0.82,7.216-1.928
	c0.615-0.286,1.188-0.614,1.804-0.901c0.533,0.41,1.148,0.82,1.763,1.147c1.927,1.025,4.141,1.518,6.765,1.518
	c2.214,0,4.469-0.369,6.683-1.066c1.845-0.574,3.689-1.353,5.453-2.255c0.696-0.369,1.394-0.737,2.05-1.106
	c0.655,0.86,1.435,1.64,2.378,2.296c1.106,0.778,2.378,1.394,3.771,1.804c1.065,0.287,2.214,0.492,3.402,0.533
	c0.287,0,0.574,0.041,0.861,0.041l0,0c0.697,0,1.435-0.041,2.173-0.123c1.024-0.123,2.05-0.328,3.075-0.574c0.041,0,0.041,0,0.082,0
	c1.106-0.328,2.172-0.738,3.197-1.23c0.123,0.082,0.246,0.164,0.369,0.246c1.353,0.902,2.911,1.436,4.592,1.6
	c0.287,0.041,0.574,0.041,0.86,0.041c0.984,0.368,1.968,0.573,2.952,0.573c2.296,0,4.551-0.983,6.149-2.746
	c0.533-0.246,1.107-0.533,1.64-0.779c1.641-0.861,3.198-1.845,4.674-2.911c1.395-0.983,2.706-2.05,3.977-3.156
	c1.025-0.902,2.01-1.722,2.911-2.542c2.46-2.05,3.607-5.289,2.911-8.404c0-0.041,0-0.041,0-0.082
	c-0.328-1.435-1.025-2.747-2.009-3.812c0.491-0.41,0.983-0.82,1.476-1.23c0.369-0.287,0.697-0.574,1.065-0.901h8.405
	c1.64,0,3.279-0.451,4.714-1.312c1.559-0.942,2.788-2.296,3.526-3.936C484.505,470.142,484.136,466.821,482.25,464.32z
	 M300.92,495.561c-1.763,0-3.444,0.163-5.002,0.491l0.615-1.229c0.123-0.205,0.205-0.451,0.328-0.697l2.582-6.519
	c0.082-0.246,0.164-0.492,0.246-0.738l1.722-5.903c0.082-0.246,0.123-0.533,0.205-0.819l0.123-0.738l0.123,0.819
	c0.041,0.246,0.082,0.533,0.164,0.779l1.436,5.658c0.082,0.245,0.122,0.491,0.204,0.696l2.337,6.519
	c0.082,0.246,0.164,0.451,0.287,0.697l0.779,1.722C304.979,495.806,302.97,495.561,300.92,495.561z"/>
<g>
	<path fill="#FFFFFF" stroke="#FFFFFF" stroke-miterlimit="10" d="M443.918,496.298c-0.041,0.082-0.082,0.164-0.123,0.246
		C443.795,496.462,443.877,496.38,443.918,496.298z"/>
	<path fill="#FFFFFF" stroke="#FFFFFF" stroke-miterlimit="10" d="M317.114,498.635l-3.443-7.502l-2.337-6.52l-1.436-5.657
		l-1.517-9.921l-0.369-7.954l0.041-3.115h1.312l1.804-0.123l0.451-5.166l-0.041-1.229l-2.173-0.164h-2.378l-0.41-13.98
		l-0.779-13.734l-0.614-15.865v-0.615l0.451-0.082l0.819-0.164l0.574-0.205l0.246-0.205v-0.819l-0.082-0.205l-0.41-0.205
		l-0.697-0.205l-1.024-0.205l-0.082-3.525v-0.492h0.123l0.696-0.123l0.451-0.164l0.205-0.164v-1.353l0.123-0.041l0.574-0.205
		l0.245-0.246l0.041-4.879v-0.123l-0.409-0.246l-0.697-0.205l-0.942-0.164l-1.148-0.123h-0.287l-0.164-16.645l0.082-8.896
		l-0.041-0.451l-0.696-0.451v-8.159v-0.041h-0.164l-0.205,8.2l-0.738,0.41l-0.082,8.938l-0.492,17.014l0,0l-0.942,0.041
		l-1.066,0.123l-0.86,0.164l-0.574,0.205l-0.246,0.246l-0.041,4.878l0.082,0.246l0.41,0.246l0.41,0.123v1.271l0.082,0.205
		l0.328,0.164l0.573,0.164l0.574,0.082l-0.164,3.977l-0.779,0.164l-0.819,0.164l-0.574,0.205l-0.246,0.205v0.819l0.082,0.205
		l0.41,0.205l0.697,0.164l1.106,0.205l-0.942,15.497l-1.107,13.734l-0.779,14.923h-2.869l-1.886,0.164l0.369,5.329l0.573,1.025
		l1.927,0.123h0.738l-0.041,2.337l-0.574,8.117l-1.886,10.29l-1.722,5.904l-2.583,6.519l-3.771,7.502l-7.175,10.536h-2.665v4.674
		h12.259v-4.674h-0.697c3.73-3.033,8.527-5.37,13.816-5.37c5.288,0,10.126,2.337,13.815,5.37v0.041v4.674l11.603-0.041v-4.674
		h-2.624L317.114,498.635z"/>
	<path fill="#FFFFFF" stroke="#FFFFFF" stroke-miterlimit="10" d="M275.706,494.043c-0.041-0.164-0.082-0.246-0.164-0.328
		c-0.082-0.041-0.205-0.082-0.368-0.041c-0.164,0.041-0.287,0.164-0.41,0.328c-0.328,0.287-0.574,0.656-0.82,1.107
		s-0.492,0.819-0.738,1.147c-0.655,0.861-1.312,1.763-2.009,2.624c-0.696,0.861-1.435,1.722-2.173,2.583
		c-0.45,0.451-0.942,0.983-1.517,1.558s-1.147,1.148-1.763,1.64c-0.615,0.492-1.23,0.902-1.845,1.189
		c-0.615,0.287-1.189,0.41-1.764,0.287c-0.655-0.041-0.983-0.451-0.983-1.189c0.041-0.573,0.164-1.147,0.41-1.763
		c0.205-0.615,0.451-1.188,0.737-1.763c0.984-2.296,2.132-4.592,3.444-6.847c1.312-2.255,2.583-4.51,3.854-6.765l3.28-5.862
		l1.927-2.46c0.983-1.271,1.968-2.501,2.951-3.771c0.984-1.271,1.927-2.542,2.952-3.813h10.003c0.164,0,0.287-0.041,0.41-0.164
		s0.205-0.245,0.246-0.409s0.041-0.287,0-0.41s-0.164-0.164-0.328-0.164h-9.47c0.983-1.271,1.886-2.501,2.787-3.771
		c0.902-1.271,1.805-2.542,2.706-3.813c0.451-0.655,0.861-1.312,1.312-2.009c0.41-0.696,0.82-1.394,1.189-2.132
		c0.287-0.491,0.533-1.024,0.738-1.599s0.205-1.065-0.041-1.476c-0.205-0.328-0.533-0.492-0.943-0.492s-0.861,0.123-1.353,0.328
		c-0.492,0.205-0.943,0.451-1.395,0.738c-0.45,0.286-0.86,0.573-1.147,0.778c-1.271,0.943-2.378,2.009-3.403,3.198
		c-1.024,1.188-2.009,2.46-2.951,3.771c-0.738,1.065-1.436,2.132-2.091,3.197c-0.697,1.066-1.354,2.133-1.968,3.239h-7.298
		c-0.451,0-0.656,0.205-0.697,0.574s0.123,0.574,0.492,0.574h6.806l-0.41,0.737c-1.517,2.624-2.951,5.248-4.264,7.872
		c-1.353,2.623-2.665,5.288-3.936,7.953c-0.779,1.599-1.558,3.198-2.337,4.756c-0.123,0.246-0.205,0.491-0.328,0.696
		c0,0-0.041,0.041-0.041,0.082c-0.574,0.861-1.229,1.723-1.845,2.583c-0.656,0.82-1.312,1.64-2.009,2.46
		c-0.902,0.984-1.927,1.968-3.075,2.993c-1.147,1.024-2.337,1.886-3.607,2.624c-1.229,0.737-2.46,1.271-3.689,1.64
		c-1.23,0.369-2.337,0.369-3.362,0.041c-0.533-0.164-0.901-0.41-1.147-0.779s-0.369-0.82-0.41-1.353
		c-0.041-0.533,0-1.066,0.123-1.682c0.123-0.614,0.287-1.229,0.492-1.804c0.369-1.147,0.819-2.255,1.353-3.402
		c0.533-1.107,1.107-2.214,1.763-3.321c0.246,0.984,0.738,1.723,1.559,2.173c0.819,0.451,1.722,0.656,2.787,0.574
		c1.066-0.041,2.132-0.328,3.198-0.901c1.065-0.533,2.091-1.23,3.074-2.091c0.984-0.82,1.886-1.805,2.747-2.829
		c0.861-1.066,1.558-2.132,2.173-3.239c0.574-1.065,1.025-2.173,1.312-3.32c0.287-1.148,0.328-2.214,0.205-3.198
		c-0.123-0.983-0.491-1.763-1.065-2.419c-0.574-0.655-1.435-0.983-2.501-0.983c-1.147,0-2.337,0.246-3.566,0.778
		c-1.23,0.533-2.419,1.189-3.608,2.05c-1.188,0.861-2.296,1.805-3.361,2.911c-1.066,1.107-2.009,2.173-2.87,3.239
		c-0.983,1.229-1.886,2.541-2.747,3.977c-0.655,1.065-1.229,2.173-1.722,3.238c-0.041,0.041-0.041,0.082-0.082,0.123
		c-0.573,0.861-1.229,1.723-1.845,2.583c-0.656,0.82-1.312,1.64-2.009,2.46c-0.902,0.984-1.927,1.968-3.075,2.993
		c-1.147,1.024-2.336,1.886-3.607,2.624c-1.229,0.737-2.46,1.271-3.689,1.64c-1.23,0.328-2.337,0.369-3.362,0.041
		c-0.532-0.164-0.901-0.41-1.147-0.779s-0.369-0.82-0.41-1.353c-0.041-0.533,0-1.066,0.123-1.682
		c0.123-0.614,0.287-1.229,0.492-1.804c0.369-1.147,0.819-2.255,1.353-3.402c0.533-1.107,1.107-2.214,1.763-3.321
		c0.246,0.984,0.738,1.723,1.559,2.173c0.778,0.451,1.722,0.656,2.787,0.574c1.066-0.041,2.132-0.328,3.198-0.901
		c1.065-0.533,2.091-1.23,3.074-2.092c0.984-0.819,1.887-1.804,2.747-2.828c0.861-1.066,1.558-2.132,2.173-3.239
		c0.574-1.065,1.025-2.173,1.312-3.32c0.286-1.148,0.327-2.214,0.204-3.198c-0.122-0.983-0.491-1.763-1.065-2.419
		c-0.574-0.655-1.435-0.983-2.501-0.983c-1.147,0-2.337,0.246-3.566,0.778c-1.23,0.533-2.419,1.189-3.608,2.05
		c-1.188,0.861-2.295,1.805-3.361,2.911c-1.066,1.066-2.009,2.173-2.87,3.239c-0.983,1.229-1.886,2.541-2.746,3.977
		c-0.697,1.147-1.312,2.296-1.846,3.484c-0.041,0.082-0.082,0.123-0.123,0.164c-0.409,0.533-0.819,1.025-1.312,1.477
		c-0.492,0.45-0.943,0.819-1.476,1.147c-0.287,0.205-0.574,0.328-0.902,0.41s-0.615,0.123-0.901,0.123
		c-0.287,0-0.533-0.041-0.738-0.164s-0.328-0.328-0.41-0.615c-0.041-0.041-0.041-0.082-0.041-0.123
		c1.353-1.722,2.624-3.443,3.854-5.206c1.23-1.764,2.378-3.567,3.444-5.453c0.778-1.312,1.394-2.624,1.927-3.854
		c0.246-0.533,0.451-1.107,0.656-1.722c0.205-0.615,0.205-1.148,0.123-1.641c-0.164-0.573-0.492-0.86-0.984-0.86
		s-1.025,0.164-1.599,0.492c-0.574,0.327-1.148,0.737-1.682,1.188c-0.532,0.492-0.983,0.902-1.312,1.229
		c-1.065,1.107-1.968,2.337-2.706,3.69c-0.737,1.353-1.394,2.705-1.968,4.059c-0.533,1.312-0.942,2.624-1.312,3.977
		c-0.328,1.353-0.41,2.624-0.246,3.812c0.041,0.328,0.123,0.656,0.246,0.984c-0.861,1.106-1.722,2.173-2.665,3.197
		c-0.902,1.025-1.845,1.969-2.87,2.829c-0.205,0.205-0.491,0.451-0.86,0.738s-0.738,0.574-1.148,0.86
		c-0.41,0.287-0.819,0.492-1.188,0.697c-0.41,0.205-0.738,0.287-1.025,0.328c-0.287,0-0.491-0.082-0.573-0.328
		c-0.123-0.246-0.082-0.656,0.082-1.271c0.368-1.395,0.942-2.829,1.763-4.305c0.819-1.477,1.64-2.87,2.501-4.182
		c0.491-0.82,1.024-1.682,1.517-2.46c0.533-0.82,1.024-1.641,1.517-2.46c0.615-0.943,1.23-1.927,1.886-2.911
		c0.656-0.983,1.271-1.968,1.886-2.951c0.615-0.984,1.189-2.01,1.682-3.034c0.532-1.025,0.983-2.05,1.394-3.075
		c0.123-0.287,0.123-0.573,0.082-0.778c-0.041-0.246-0.164-0.369-0.328-0.492c-0.164-0.082-0.369-0.123-0.615-0.123
		c-0.245,0-0.491,0.123-0.737,0.369c-0.533,0.492-1.025,1.024-1.518,1.558c-0.491,0.533-0.942,1.066-1.353,1.599
		c-0.942,1.148-1.804,2.296-2.583,3.485c-0.819,1.188-1.558,2.419-2.296,3.607l-0.655,0.902c-1.723,2.337-3.444,4.674-5.166,6.929
		s-3.607,4.469-5.575,6.641c-0.369,0.41-0.738,0.861-1.23,1.354s-0.942,0.901-1.435,1.312s-0.984,0.738-1.517,0.984
		c-0.533,0.246-1.025,0.369-1.518,0.287c-0.328-0.123-0.369-0.451-0.164-1.066c0.205-0.574,0.492-1.229,0.861-1.927
		c0.41-0.697,0.82-1.353,1.229-2.009c0.41-0.656,0.697-1.066,0.861-1.312c1.188-1.928,2.378-3.854,3.607-5.74
		c1.23-1.886,2.46-3.771,3.69-5.739c0.491-0.779,0.983-1.517,1.476-2.255s0.983-1.476,1.476-2.255
		c0.369-0.574,0.738-1.148,1.107-1.722c0.369-0.574,0.737-1.189,1.065-1.804c0.164-0.328,0.41-0.738,0.656-1.148
		c0.246-0.451,0.41-0.861,0.451-1.229c0.041-0.369-0.041-0.615-0.205-0.779c-0.164-0.123-0.328-0.205-0.574-0.164
		s-0.492,0.082-0.738,0.246c-0.286,0.123-0.532,0.328-0.737,0.533c-0.328,0.287-0.656,0.614-0.943,0.942s-0.615,0.656-0.901,0.943
		c-1.107,1.229-2.173,2.501-3.157,3.812c-0.983,1.312-1.927,2.665-2.87,3.977c-0.983,1.312-1.886,2.706-2.787,4.1
		c-0.902,1.395-1.764,2.829-2.542,4.264c-0.697,1.312-1.354,2.624-1.968,3.978c-0.615,1.353-1.025,2.705-1.271,4.018
		c-0.123,0.533-0.164,1.065-0.164,1.558c0,0.533,0.041,0.984,0.164,1.354c0.123,0.409,0.328,0.696,0.615,0.942
		s0.697,0.287,1.229,0.246c0.574-0.082,1.148-0.287,1.764-0.656c0.614-0.369,1.229-0.778,1.845-1.271s1.188-1.025,1.722-1.599
		c0.533-0.574,1.066-1.107,1.517-1.6c1.354-1.394,2.624-2.869,3.854-4.428c1.229-1.558,2.459-3.115,3.648-4.715
		c-0.246,0.451-0.451,0.902-0.656,1.354s-0.41,0.901-0.656,1.353c-0.573,1.271-1.106,2.542-1.64,3.896
		c-0.533,1.353-0.819,2.664-0.942,3.895c-0.082,0.655-0.041,1.229,0.123,1.722s0.409,0.861,0.737,1.147
		c0.328,0.246,0.779,0.369,1.271,0.369c0.532,0,1.106-0.205,1.722-0.614c1.106-0.656,2.173-1.477,3.197-2.542
		c0.984-1.025,1.969-2.05,2.87-3.034c0.533-0.615,1.066-1.188,1.599-1.804c0.533-0.574,1.066-1.189,1.6-1.845
		c0.45,0.533,1.065,0.778,1.845,0.778c0.778,0,1.64-0.368,2.583-0.983c0.573-0.41,1.106-0.861,1.64-1.354
		c-0.328,0.984-0.615,1.969-0.82,2.952c-0.287,1.435-0.328,2.829-0.164,4.1c0.164,1.148,0.574,2.091,1.189,2.829
		c0.615,0.779,1.517,1.147,2.665,1.188c1.065,0.041,2.214-0.082,3.361-0.327c1.147-0.246,2.337-0.697,3.525-1.312
		c2.501-1.229,4.715-2.87,6.724-5.002c1.189-1.271,2.296-2.582,3.403-3.936c-0.246,0.82-0.492,1.641-0.656,2.419
		c-0.287,1.436-0.328,2.829-0.164,4.1c0.164,1.148,0.574,2.091,1.189,2.829c0.614,0.779,1.517,1.147,2.664,1.188
		c1.066,0.041,2.214-0.081,3.362-0.327c1.147-0.246,2.337-0.697,3.525-1.312c2.501-1.229,4.715-2.869,6.724-5.001
		c0.984-1.066,1.927-2.132,2.87-3.28c-0.041,0.123-0.123,0.287-0.205,0.41c-0.246,0.656-0.492,1.312-0.738,2.05
		s-0.492,1.435-0.696,2.173c-0.205,0.738-0.328,1.435-0.41,2.132s-0.041,1.353,0.041,1.927c0.082,0.492,0.246,0.861,0.492,1.106
		c0.245,0.246,0.532,0.41,0.86,0.451s0.697,0.041,1.107-0.041c0.409-0.082,0.819-0.246,1.312-0.41
		c1.271-0.573,2.46-1.353,3.607-2.295c1.148-0.984,2.255-2.051,3.28-3.198c1.024-1.188,2.05-2.419,2.992-3.689
		c0.943-1.271,1.846-2.501,2.665-3.649C275.665,494.33,275.747,494.166,275.706,494.043z M279.847,469.937
		c0.82-1.394,1.682-2.787,2.583-4.141c0.861-1.353,1.763-2.706,2.583-4.059c0.41-0.656,0.82-1.271,1.271-1.927
		c0.451-0.656,0.943-1.23,1.477-1.763c0.041-0.041,0.123-0.082,0.246-0.164s0.245-0.164,0.368-0.246s0.246-0.164,0.369-0.246
		c0.123-0.041,0.164-0.123,0.205-0.123c-0.041,0.205-0.082,0.41-0.082,0.615s-0.082,0.451-0.164,0.696
		c-0.123,0.287-0.246,0.615-0.41,0.902l-0.491,0.861c-0.328,0.614-0.656,1.188-1.025,1.804c-0.369,0.574-0.737,1.147-1.106,1.722
		c-0.779,1.229-1.559,2.378-2.378,3.525c-0.82,1.148-1.64,2.296-2.46,3.403h-1.435L279.847,469.937z M278.658,471.904h1.312
		c-0.86,1.189-1.763,2.337-2.664,3.485c-0.902,1.147-1.805,2.296-2.706,3.443L278.658,471.904z M248.485,491.911
		c0.86-1.353,1.804-2.706,2.706-4.018c0.942-1.312,1.927-2.583,2.992-3.854c0.41-0.492,0.861-1.025,1.354-1.599
		c0.491-0.574,1.024-1.107,1.558-1.6s1.106-0.901,1.681-1.271c0.574-0.328,1.188-0.533,1.763-0.615
		c0.943-0.082,1.599,0.205,2.009,0.82c0.369,0.614,0.41,1.435,0.082,2.46c-0.205,0.696-0.532,1.353-0.942,2.05
		c-0.41,0.696-0.779,1.353-1.189,2.009c-0.41,0.655-0.778,1.271-1.188,1.845s-0.861,1.188-1.354,1.804
		c-0.901,1.107-1.927,2.132-3.033,3.075c-1.148,0.942-2.296,1.517-3.526,1.722c-0.942,0.123-1.64-0.082-2.214-0.574
		c-0.532-0.492-0.819-1.188-0.86-2.05L248.485,491.911z M228.478,491.911c0.861-1.353,1.804-2.706,2.706-4.018
		c0.942-1.312,1.927-2.583,2.992-3.854c0.41-0.492,0.861-1.025,1.354-1.599c0.491-0.574,1.024-1.107,1.558-1.6
		s1.106-0.901,1.681-1.271c0.574-0.328,1.189-0.533,1.763-0.615c0.943-0.082,1.6,0.205,2.009,0.82
		c0.369,0.614,0.41,1.435,0.082,2.46c-0.204,0.696-0.532,1.353-0.942,2.05c-0.41,0.696-0.779,1.353-1.189,2.009
		c-0.409,0.655-0.778,1.271-1.188,1.845s-0.861,1.188-1.353,1.804c-0.902,1.107-1.928,2.132-3.034,3.075
		c-1.148,0.942-2.296,1.517-3.525,1.722c-0.943,0.123-1.641-0.082-2.214-0.574c-0.533-0.492-0.82-1.188-0.861-2.05L228.478,491.911z
		 M217.408,492.896c0.369-1.436,0.861-2.911,1.517-4.387c0.656-1.477,1.354-2.911,2.132-4.346c0.41-0.697,0.82-1.395,1.271-2.132
		c0.451-0.738,0.942-1.395,1.517-1.968c0.123-0.123,0.246-0.246,0.451-0.41s0.369-0.287,0.574-0.41s0.409-0.164,0.573-0.205
		c0.164,0,0.287,0.041,0.41,0.205c0.123,0.246,0.164,0.533,0.082,0.902c-0.082,0.368-0.164,0.737-0.328,1.147
		s-0.369,0.82-0.573,1.189c-0.205,0.368-0.369,0.696-0.492,0.983c-0.369,0.738-0.779,1.435-1.189,2.132s-0.86,1.395-1.271,2.091
		c-0.82,1.312-1.681,2.583-2.501,3.812c-0.861,1.271-1.722,2.501-2.665,3.69C216.998,494.453,217.162,493.674,217.408,492.896z"/>
	<path fill="#FFFFFF" stroke="#FFFFFF" stroke-miterlimit="10" d="M423.624,480.268c0.328-0.942,0.41-1.845,0.328-2.705
		c-0.082-0.779-0.41-1.477-0.942-2.009c-0.533-0.533-1.312-0.943-2.378-1.148c-1.107-0.205-2.296-0.205-3.608,0.041
		c-1.312,0.246-2.583,0.615-3.854,1.107c-1.312,0.491-2.542,1.065-3.771,1.722c-1.23,0.656-2.337,1.394-3.444,2.173
		c-1.065,0.778-2.091,1.599-2.992,2.46c-0.943,0.86-1.763,1.722-2.46,2.623c-0.328,0.41-0.656,0.861-0.984,1.354
		c-0.123,0.123-0.246,0.205-0.369,0.328c-0.245,0.246-0.491,0.492-0.778,0.696l-1.395,1.23c-0.532,0.451-1.106,0.86-1.681,1.312
		c-0.574,0.41-1.147,0.861-1.722,1.271c-1.107,0.778-2.378,1.558-3.73,2.337c-1.354,0.778-2.747,1.312-4.223,1.517
		c-0.287,0.041-0.533,0.041-0.779,0.041s-0.451-0.041-0.656-0.123s-0.328-0.164-0.369-0.328c-0.082-0.123-0.041-0.328,0.082-0.533
		c0.205-0.451,0.533-0.901,0.984-1.353c0.41-0.451,0.861-0.861,1.271-1.271c0.984-1.024,1.968-2.009,2.993-2.992
		c1.025-0.984,2.009-1.968,2.993-2.952c1.024-0.983,2.009-2.009,2.992-2.992c0.943-1.025,1.804-2.051,2.542-3.075
		c0.246-0.369,0.533-0.82,0.861-1.353c0.327-0.533,0.532-1.066,0.655-1.559s0.123-0.942,0-1.353s-0.532-0.656-1.188-0.738
		c-0.451-0.041-0.943-0.041-1.476,0.082c-0.533,0.123-1.066,0.246-1.559,0.451c-0.532,0.205-1.024,0.41-1.558,0.656
		c-0.492,0.245-0.984,0.491-1.394,0.696c-1.395,0.697-2.747,1.477-3.978,2.337c-1.271,0.82-2.5,1.681-3.73,2.583
		c-2.173,1.558-4.264,3.156-6.272,4.838c0.492-0.574,0.984-1.148,1.476-1.763c0.492-0.574,0.984-1.189,1.436-1.764l4.96-5.821
		c1.723-1.394,3.444-2.788,5.125-4.182s3.403-2.788,5.125-4.223c1.188-1.025,2.378-2.009,3.525-2.993
		c1.148-0.983,2.296-2.009,3.444-3.033c1.065-0.943,2.091-1.927,3.115-2.87c1.025-0.943,1.968-1.968,2.788-2.993
		c0.246-0.287,0.492-0.655,0.778-1.024c0.246-0.369,0.451-0.738,0.492-1.066c0.082-0.328,0-0.615-0.164-0.819
		c-0.205-0.205-0.573-0.328-1.229-0.328s-1.271,0.123-1.968,0.328c-0.697,0.204-1.354,0.491-2.05,0.86
		c-0.656,0.328-1.312,0.697-1.968,1.107c-0.656,0.409-1.189,0.778-1.682,1.106c-1.271,0.861-2.459,1.763-3.484,2.706
		c-1.065,0.942-2.091,1.886-3.116,2.87c-1.065,1.024-2.132,2.091-3.197,3.156c-1.066,1.066-2.091,2.132-3.116,3.198
		c-2.009,2.132-3.977,4.264-5.862,6.396s-3.73,4.264-5.493,6.396c-0.615,0.696-1.23,1.394-1.805,2.091
		c-0.573,0.655-1.147,1.353-1.681,2.091c-0.738,0.942-1.435,1.845-2.091,2.788c-0.656,0.901-1.353,1.845-2.05,2.787
		c-0.615,0.738-1.147,1.518-1.681,2.255c-0.492,0.779-0.943,1.559-1.312,2.296c-0.041,0.164-0.041,0.287,0.041,0.328
		s0.164,0.082,0.328,0.082c0.123,0,0.287,0,0.451-0.082c0.164-0.041,0.287-0.123,0.41-0.205c0.287-0.123,0.533-0.287,0.738-0.451
		c0.204-0.164,0.45-0.327,0.655-0.45c0.369-0.246,0.697-0.492,0.984-0.738c0.328-0.246,0.614-0.492,0.86-0.738l0.246-0.246
		c0.205-0.123,0.369-0.286,0.574-0.491c0.164-0.164,0.369-0.369,0.533-0.533l0.532-0.492l0.082-0.082
		c0.779-0.696,1.559-1.435,2.378-2.132c0.82-0.697,1.641-1.394,2.419-2.091c1.681-1.394,3.403-2.788,5.166-4.1
		c1.722-1.353,3.525-2.665,5.411-3.895c0.82-0.533,1.682-1.066,2.583-1.599c0.902-0.533,1.804-0.984,2.706-1.395
		c0.041-0.041,0.246-0.082,0.615-0.164s0.737-0.164,1.106-0.246s0.738-0.123,0.984-0.123c0.287,0,0.369,0.082,0.287,0.205
		c-0.41,0.574-0.943,1.148-1.6,1.722c-0.655,0.574-1.312,1.148-1.886,1.682l-2.501,2.337c-0.86,0.778-1.681,1.599-2.541,2.418
		c-0.861,0.82-1.641,1.682-2.378,2.501c-0.902,0.943-1.764,1.927-2.542,2.911c-0.779,0.984-1.436,2.009-1.886,2.993
		c-0.205,0.45-0.369,0.942-0.451,1.394s0,0.861,0.164,1.229c0.164,0.369,0.451,0.656,0.86,0.861c0.41,0.205,1.025,0.287,1.764,0.246
		c1.394-0.082,2.787-0.451,4.182-1.148c1.394-0.696,2.705-1.353,3.895-2.091c1.229-0.778,2.46-1.558,3.607-2.419
		c0.943-0.696,1.845-1.394,2.747-2.091c-0.164,0.328-0.287,0.656-0.451,0.984c-0.328,0.82-0.533,1.64-0.615,2.419
		c-0.081,0.779,0.041,1.517,0.287,2.091c0.287,0.615,0.779,1.106,1.477,1.476c0.696,0.369,1.681,0.574,2.91,0.574
		c1.354,0,2.788-0.246,4.223-0.697c1.436-0.45,2.829-1.024,4.223-1.722c1.354-0.697,2.665-1.476,3.896-2.337
		c1.229-0.86,2.296-1.681,3.197-2.501c0.943-0.819,1.845-1.681,2.706-2.623c0.861-0.902,1.558-1.846,2.173-2.788
		C422.518,482.03,423.296,481.211,423.624,480.268z M394.353,467.149c2.214-2.337,4.551-4.674,6.969-7.011
		c0.943-0.861,1.846-1.763,2.747-2.665c0.861-0.943,1.845-1.804,2.952-2.583l0.328-0.246c0.164-0.123,0.328-0.205,0.491-0.287
		c0.164-0.082,0.328-0.164,0.492-0.245c0.164-0.082,0.287-0.082,0.41-0.082c0.205,0.041,0.328,0.123,0.287,0.327
		c-0.041,0.164-0.123,0.369-0.246,0.615s-0.287,0.451-0.451,0.697c-0.164,0.205-0.287,0.369-0.369,0.492
		c-0.778,1.024-1.722,2.05-2.746,3.074c-1.025,0.984-2.091,2.009-3.157,2.993c-1.106,1.024-2.255,2.05-3.443,3.074
		c-1.148,0.984-2.337,2.009-3.526,3.034c-1.188,1.025-2.378,2.009-3.607,3.034c-1.188,0.983-2.419,2.009-3.648,2.992
		C389.966,471.863,392.139,469.486,394.353,467.149z M421.246,478.137c-0.205,0.491-0.491,1.024-0.819,1.558
		s-0.656,0.983-0.943,1.435c-1.065,1.436-2.214,2.829-3.484,4.141c-0.943,1.025-1.968,2.05-3.034,2.993
		c-1.065,0.942-2.214,1.886-3.484,2.788c-0.533,0.368-1.107,0.778-1.723,1.229c-0.614,0.41-1.229,0.82-1.927,1.189
		c-0.655,0.368-1.353,0.655-2.05,0.901c-0.696,0.246-1.435,0.41-2.132,0.492c-0.614,0.041-1.106-0.041-1.435-0.246
		s-0.533-0.492-0.656-0.82s-0.164-0.696-0.082-1.106c0.041-0.41,0.164-0.779,0.287-1.148c0.41-1.024,1.066-2.091,1.886-3.156
		c0.82-1.066,1.722-2.05,2.665-3.034c0.492-0.533,1.025-1.024,1.517-1.558c0.533-0.533,1.066-1.025,1.6-1.517
		c1.065-0.943,2.173-1.927,3.32-2.87c1.148-0.943,2.419-1.804,3.771-2.624c0.451-0.287,0.984-0.574,1.6-0.86
		c0.614-0.287,1.229-0.533,1.845-0.738s1.229-0.287,1.763-0.287s0.984,0.164,1.312,0.451c0.328,0.328,0.492,0.737,0.451,1.188
		C421.574,477.111,421.451,477.604,421.246,478.137z"/>
	<path fill="#FFFFFF" stroke="#FFFFFF" stroke-miterlimit="10" d="M439.573,482.974c0.041-0.901-0.041-1.763-0.164-2.583
		c-0.082-0.573-0.205-1.147-0.287-1.722c-0.082-0.573-0.205-1.147-0.328-1.722c-0.041-0.287-0.123-0.574-0.205-0.943
		c-0.082-0.368-0.164-0.737-0.205-1.106s0-0.779,0.082-1.147c0.082-0.369,0.287-0.738,0.615-1.066
		c0.164-0.205,0.205-0.369,0.041-0.492c-0.123-0.123-0.369-0.164-0.697-0.082c-0.409,0.123-0.819,0.328-1.147,0.533
		c-0.451,0.287-0.82,0.574-1.148,0.902c-0.327,0.328-0.614,0.655-0.819,1.024l-1.927,1.968l-6.149,6.272
		c-0.41,0.369-0.779,0.779-1.148,1.148s-0.738,0.738-1.066,1.147c-0.081,0.082-0.204,0.205-0.327,0.328
		c-0.164,0.123-0.287,0.287-0.369,0.41s-0.123,0.246-0.123,0.369c0.041,0.082,0.164,0.164,0.369,0.164
		c0.287,0,0.532-0.123,0.778-0.41c0.246-0.246,0.451-0.492,0.656-0.656c0.369-0.368,0.697-0.737,1.066-1.106
		c0.368-0.328,0.696-0.697,1.065-1.107l5.944-6.026l0.287-0.287c-0.205,0.697-0.328,1.436-0.369,2.132
		c-0.041,0.697-0.082,1.395-0.041,2.091c0.041,0.697,0.082,1.354,0.164,2.051c0.082,0.655,0.123,1.353,0.164,2.009
		c-0.942,0-1.927,0.123-2.869,0.368c-1.477,0.369-2.87,0.943-4.142,1.723c-1.312,0.778-2.378,1.64-3.238,2.623
		c-0.41,0.451-0.779,0.943-1.066,1.477c-0.286,0.492-0.491,1.024-0.614,1.517s-0.082,0.943,0.041,1.394
		c0.123,0.41,0.409,0.779,0.86,1.107c0.328,0.246,0.738,0.451,1.23,0.574c0.491,0.123,1.024,0.205,1.558,0.246
		c0.533,0.04,1.147,0,1.763-0.082s1.23-0.205,1.804-0.369c1.354-0.369,2.583-0.984,3.731-1.764c1.147-0.778,2.091-1.64,2.91-2.5
		c0.82-0.902,1.477-1.846,1.968-2.747c0.492-0.943,0.861-1.886,1.066-2.788C439.408,484.777,439.531,483.876,439.573,482.974z
		 M433.833,488.058c-0.205,0.779-0.533,1.558-0.943,2.337c-0.246,0.451-0.533,0.901-0.861,1.353s-0.696,0.902-1.147,1.312
		c-0.451,0.409-0.943,0.778-1.476,1.106c-0.533,0.328-1.189,0.533-1.887,0.697c-0.491,0.123-0.983,0.164-1.476,0.164
		s-0.901-0.041-1.312-0.123s-0.738-0.205-1.025-0.41s-0.492-0.451-0.574-0.738c-0.163-0.451-0.123-0.901,0.041-1.435
		c0.164-0.492,0.451-1.025,0.82-1.558c0.369-0.533,0.82-1.025,1.312-1.518c0.533-0.491,1.066-0.901,1.641-1.312
		c1.106-0.738,2.296-1.312,3.566-1.681s2.501-0.533,3.689-0.492C434.201,486.541,434.078,487.319,433.833,488.058z"/>
	<path fill="#FFFFFF" stroke="#FFFFFF" stroke-miterlimit="10" d="M475.732,469.281c-0.082-0.082-0.164-0.123-0.368-0.123H464.58
		c1.107-0.902,2.173-1.805,3.198-2.706c1.024-0.902,2.05-1.845,3.075-2.747c0.491-0.451,0.983-0.942,1.476-1.476
		c0.492-0.492,0.942-1.025,1.353-1.558c0.328-0.369,0.615-0.738,0.861-1.148s0.205-0.779-0.041-1.065
		c-0.246-0.246-0.615-0.369-1.066-0.369c-0.491,0-0.983,0.082-1.517,0.246c-0.533,0.123-1.065,0.327-1.599,0.532
		s-0.943,0.41-1.312,0.574c-1.435,0.697-2.705,1.476-3.895,2.337c-1.188,0.861-2.296,1.763-3.361,2.747
		c-0.82,0.778-1.64,1.558-2.378,2.296c-0.779,0.778-1.517,1.558-2.255,2.337h-8.281c-0.492,0-0.779,0.123-0.779,0.409
		c-0.041,0.287,0.164,0.41,0.574,0.41h7.707l-0.491,0.533c-1.723,1.886-3.362,3.812-4.879,5.698c-1.517,1.927-3.034,3.813-4.51,5.74
		c-0.861,1.147-1.763,2.296-2.624,3.443c-0.902,1.148-1.722,2.296-2.501,3.444c-0.287,0.45-0.574,0.942-0.86,1.476
		c-0.287,0.533-0.574,1.024-0.779,1.558s-0.369,1.025-0.451,1.559c-0.082,0.491-0.082,0.983,0.041,1.394
		c0.082,0.369,0.287,0.615,0.574,0.82c0.287,0.163,0.615,0.286,0.983,0.327c0.369,0.041,0.82,0.041,1.271-0.041
		s0.942-0.164,1.476-0.327c1.436-0.41,2.788-0.984,4.1-1.682c1.312-0.696,2.542-1.476,3.731-2.337
		c1.188-0.86,2.296-1.763,3.402-2.664c1.066-0.943,2.091-1.805,3.034-2.624c0.164-0.123,0.205-0.205,0.205-0.328
		c-0.041-0.123-0.082-0.205-0.205-0.246c-0.082-0.041-0.246-0.041-0.41-0.041c-0.164,0.041-0.328,0.123-0.492,0.246
		c-0.369,0.205-0.656,0.492-0.943,0.82c-0.286,0.327-0.573,0.614-0.86,0.86c-0.738,0.615-1.476,1.271-2.255,1.886
		c-0.779,0.615-1.599,1.23-2.501,1.846c-0.492,0.327-1.065,0.696-1.722,1.147c-0.656,0.41-1.312,0.82-1.968,1.188
		c-0.697,0.369-1.395,0.656-2.091,0.861c-0.697,0.205-1.354,0.287-1.968,0.205c-0.738-0.041-1.107-0.328-1.107-0.861
		c0.041-0.409,0.205-0.819,0.451-1.271s0.533-0.861,0.82-1.271c1.106-1.682,2.418-3.321,3.895-4.961
		c1.476-1.64,2.951-3.28,4.387-4.879l3.689-4.223l2.173-1.763c1.107-0.902,2.214-1.804,3.321-2.706
		c1.106-0.902,2.214-1.845,3.32-2.747h11.397c0.164,0,0.328-0.041,0.451-0.123s0.245-0.164,0.286-0.287
		C475.773,469.527,475.773,469.363,475.732,469.281z M459.866,472.52c-1.025,0.82-2.05,1.681-3.075,2.501l4.592-5.043h1.517
		C461.875,470.839,460.85,471.699,459.866,472.52z M462.162,469.158l0.614-0.615c0.943-1.025,1.927-2.009,2.911-2.993
		c0.984-0.983,1.968-1.968,2.952-2.951c0.45-0.451,0.942-0.943,1.435-1.395s1.065-0.901,1.681-1.271
		c0.041-0.041,0.123-0.082,0.287-0.123c0.123-0.041,0.287-0.123,0.451-0.205s0.287-0.123,0.41-0.164s0.204-0.082,0.204-0.123
		c-0.041,0.123-0.081,0.287-0.081,0.451s-0.082,0.328-0.205,0.533s-0.287,0.45-0.492,0.655l-0.574,0.615
		c-0.369,0.451-0.738,0.861-1.147,1.312c-0.41,0.41-0.861,0.861-1.271,1.271c-0.86,0.86-1.763,1.722-2.706,2.542
		c-0.942,0.819-1.845,1.64-2.787,2.46H462.162L462.162,469.158z"/>
	<path fill="#FFFFFF" stroke="#FFFFFF" stroke-miterlimit="10" d="M196.582,471.003c-0.205-2.46-0.369-4.961-0.533-7.503
		s-0.164-5.043,0-7.502c0.164-2.46,0.533-4.797,1.147-7.093c0.615-2.255,1.559-4.346,2.911-6.19c1.353-1.886,3.116-3.485,5.33-4.838
		s5.001-2.337,8.363-2.993c2.501-0.491,4.755-0.369,6.765,0.287c2.009,0.656,3.197,2.05,3.607,4.1
		c0.246,1.395,0.246,2.583-0.041,3.608c-0.287,1.024-0.82,2.091-1.599,3.279c2.664-0.492,4.919-1.394,6.683-2.706
		c1.763-1.312,2.5-2.869,2.132-4.714c-0.451-2.378-2.255-4.019-5.371-4.961c-3.115-0.943-7.011-0.943-11.603-0.082
		c-5.124,0.983-9.47,2.583-13.119,4.92c-3.648,2.295-6.519,5.124-8.609,8.486c-2.091,3.361-3.484,7.215-4.141,11.602
		c-0.655,4.387-0.532,9.143,0.369,14.268c0.533,3.197,0.533,6.601,0.041,10.208c-0.492,3.608-1.722,7.052-3.689,10.331
		c-1.968,3.28-4.838,6.191-8.568,8.732c-3.731,2.542-8.527,4.387-14.432,5.494c-3.443,0.656-6.683,0.943-9.675,0.861
		c-2.993-0.082-5.576-0.451-7.831-1.107c-2.214-0.656-4.018-1.558-5.37-2.747c-1.354-1.188-2.173-2.501-2.46-4.018
		c-0.205-1.106-0.246-2.173-0.123-3.197c0.123-1.025,0.574-2.009,1.394-2.87c0.328,0.246,0.779,0.369,1.354,0.41
		c0.573,0.041,1.106,0,1.517-0.082c1.312-0.246,2.296-0.738,2.952-1.518c0.655-0.778,0.901-1.558,0.737-2.418
		c-0.205-0.984-0.819-1.682-1.927-2.091c-1.106-0.41-2.665-0.451-4.633-0.041c-2.255,0.409-3.936,1.435-5.083,3.033
		c-1.148,1.599-1.518,3.403-1.107,5.412c0.451,2.419,1.518,4.51,3.157,6.313c1.64,1.763,3.771,3.197,6.396,4.223
		c2.624,1.024,5.616,1.64,9.02,1.886c3.402,0.205,7.051-0.041,10.946-0.779c4.837-0.901,9.47-2.255,13.897-4.059
		s8.282-4.182,11.562-7.215c3.28-2.993,5.821-6.724,7.667-11.069C196.459,482.277,197.115,477.07,196.582,471.003z"/>
	<path fill="#FFFFFF" stroke="#FFFFFF" stroke-miterlimit="10" d="M367.704,479.038c0.574-0.861,1.312-1.763,2.173-2.624
		c0.615-0.696,1.271-1.312,2.009-1.968c0.738-0.615,1.517-1.229,2.419-1.804c0.164-0.123,0.369-0.287,0.656-0.451
		c0.286-0.164,0.532-0.328,0.819-0.451l1.271-0.45c0.164-0.082,0.327-0.205,0.491-0.287s0.246-0.205,0.246-0.369
		c0.082-0.328-0.041-0.492-0.328-0.451c-0.286,0.041-0.614,0.123-0.983,0.287l-0.041,0.041c-0.164,0.082-0.328,0.123-0.451,0.164
		s-0.205,0.123-0.287,0.164c-0.082,0.082-0.205,0.123-0.328,0.164s-0.245,0.123-0.327,0.164c-0.328,0.082-0.697,0.205-1.025,0.246
		c-0.328,0.082-0.615,0.123-0.82,0.164c-0.901,0.122-1.968,0.245-3.156,0.286c-1.189,0.082-2.214,0.082-3.034,0
		c-1.599-0.164-3.074-0.368-4.51-0.573c-1.394-0.205-2.828-0.328-4.305-0.41c-1.476-0.082-2.992-0.041-4.633,0.123
		c-1.64,0.164-3.402,0.492-5.37,1.024c-0.861,0.246-1.681,0.492-2.46,0.779s-1.599,0.656-2.378,1.106
		c-0.779,0.41-1.476,0.861-2.091,1.354s-1.271,0.983-1.927,1.435c-0.205,0.164-0.287,0.328-0.287,0.451s0.041,0.205,0.164,0.287
		s0.287,0.123,0.492,0.082c0.205,0,0.451-0.082,0.696-0.246c0.492-0.328,0.861-0.656,1.148-0.984
		c0.287-0.287,0.738-0.614,1.312-0.901c1.271-0.697,2.624-1.066,3.977-1.148c1.354-0.082,2.665-0.082,3.978-0.041
		c1.64,0.082,3.238,0.205,4.837,0.328c1.6,0.123,3.239,0.164,4.961,0.164c0.697,0,1.517-0.082,2.501-0.205s2.009-0.328,3.116-0.533
		c1.106-0.204,2.214-0.45,3.361-0.737c1.148-0.287,2.214-0.533,3.239-0.82c-0.328,0.205-0.656,0.41-0.984,0.615
		c-0.287,0.205-0.615,0.451-0.902,0.615c-1.64,1.147-3.238,2.336-4.878,3.484c-1.641,1.188-3.157,2.378-4.633,3.607l-1.518,1.312
		c-0.86,0.696-1.722,1.312-2.623,1.927c-0.902,0.614-1.846,1.188-2.829,1.722c-1.558,0.861-3.157,1.558-4.838,2.05
		s-3.361,0.861-5.043,1.066c-1.681,0.204-3.32,0.327-4.96,0.286c-1.641,0-3.198-0.123-4.674-0.286
		c-3.689-0.369-6.437-1.354-8.281-2.993s-2.747-3.689-2.665-6.149c0.082-2.05,0.615-4.141,1.681-6.354
		c1.066-2.214,2.419-4.387,4.018-6.519c1.927-2.624,4.264-5.125,7.052-7.585c2.747-2.46,5.903-4.756,9.471-6.888
		c3.279-2.05,6.847-3.854,10.7-5.411c3.854-1.559,7.83-2.788,11.93-3.69c1.845-0.368,3.69-0.696,5.617-0.901
		c1.927-0.246,3.771-0.369,5.575-0.369s3.526,0.123,5.166,0.328s3.074,0.615,4.387,1.147c1.435,0.574,2.46,1.312,3.156,2.255
		c0.697,0.943,1.025,1.927,0.984,3.034c0,1.106-0.369,2.255-1.066,3.484c-0.696,1.23-1.681,2.46-3.033,3.649
		c-1.271,1.188-2.788,2.255-4.469,3.197c-1.681,0.943-3.444,1.722-5.289,2.296s-3.689,0.943-5.575,1.107
		c-1.845,0.164-3.608,0.041-5.289-0.369c-0.246-0.041-0.451,0-0.656,0.041c-0.204,0.082-0.368,0.164-0.491,0.287
		s-0.164,0.245-0.164,0.368s0.164,0.205,0.369,0.246c0.286,0.164,0.778,0.246,1.394,0.246s1.188,0,1.64,0.041
		c2.255,0.082,4.715-0.205,7.38-0.86c2.501-0.697,4.838-1.641,6.97-2.87c2.132-1.23,3.977-2.583,5.493-4.1
		c1.558-1.559,2.665-3.157,3.362-4.797c0.696-1.64,0.737-3.157,0.164-4.551c-0.287-0.697-0.779-1.353-1.354-1.886
		c-0.615-0.574-1.312-1.025-2.173-1.435c-0.819-0.41-1.763-0.738-2.747-1.025c-0.983-0.287-2.05-0.492-3.156-0.656
		c-3.28-0.491-6.806-0.655-10.536-0.491c-3.731,0.123-7.544,0.573-11.397,1.353c-4.182,0.861-8.24,2.132-12.135,3.771
		c-3.896,1.641-7.585,3.485-11.028,5.617c-3.116,1.927-5.986,4.018-8.65,6.272c-2.624,2.255-4.961,4.551-6.929,6.929
		s-3.608,4.756-4.838,7.174c-1.271,2.419-2.05,4.797-2.378,7.093c-0.164,1.189-0.164,2.378-0.041,3.567
		c0.164,1.188,0.492,2.295,1.025,3.279c0.532,1.025,1.312,1.927,2.296,2.788c0.983,0.819,2.255,1.476,3.771,1.968
		c1.271,0.41,2.665,0.656,4.223,0.779s3.156,0.123,4.838,0.041c1.681-0.082,3.402-0.246,5.165-0.492s3.485-0.492,5.125-0.82
		c2.091-0.369,4.141-0.901,6.108-1.558s3.854-1.517,5.658-2.624l2.214-1.353l-2.378,2.746c-1.846,2.378-4.019,4.715-6.478,6.97
		c-2.46,2.296-5.289,4.428-8.446,6.437c-0.778,0.533-1.64,1.066-2.582,1.558c-0.943,0.492-1.845,0.984-2.788,1.436
		c-0.697,0.328-1.353,0.615-2.05,0.901c-0.697,0.246-1.312,0.533-1.927,0.82c-0.574,0.205-0.82,0.451-0.779,0.697
		c0.082,0.286,0.41,0.368,1.025,0.246c0.655-0.123,1.312-0.287,1.968-0.492c0.696-0.205,1.353-0.369,2.05-0.574
		c2.009-0.656,3.936-1.394,5.78-2.255s3.648-1.804,5.289-2.829c1.681-1.024,3.279-2.091,4.756-3.238
		c1.517-1.148,2.91-2.296,4.182-3.444c2.132-1.927,4.059-3.936,5.739-5.985s3.238-4.1,4.674-6.108
		C366.474,480.801,367.13,479.94,367.704,479.038z"/>
</g>
</svg>
